<svg id="svg" version="1.1" xmlns="http://www.w3.org/2000/svg" xmlns:xlink="http://www.w3.org/1999/xlink" width="400" height="156" viewBox="0, 0, 400,156"><g id="svgg"><path id="path0" d="M0.000 77.917 L 0.000 155.833 200.000 155.833 L 400.000 155.833 400.000 77.917 L 400.000 0.000 200.000 0.000 L 0.000 0.000 0.000 77.917 M90.239 13.401 C 91.715 14.018,92.117 15.894,91.040 17.142 C 90.348 17.945,90.103 18.022,85.583 18.852 C 82.764 19.370,81.830 20.033,82.392 21.119 C 82.525 21.377,82.764 22.037,82.922 22.586 C 83.080 23.134,83.387 23.937,83.605 24.369 C 83.822 24.802,84.000 25.272,84.000 25.415 C 84.000 25.558,84.150 26.102,84.333 26.623 C 84.925 28.306,84.524 29.568,83.173 30.283 C 81.343 31.251,80.126 30.293,78.997 27.000 C 78.824 26.496,78.529 25.786,78.341 25.423 C 78.154 25.060,78.000 24.657,78.000 24.528 C 78.000 24.111,76.932 22.334,76.622 22.236 C 76.304 22.135,74.296 23.094,73.401 23.775 C 73.117 23.990,72.808 24.167,72.713 24.167 C 72.618 24.167,72.443 24.285,72.323 24.429 C 72.204 24.573,71.805 24.844,71.438 25.031 C 71.071 25.219,70.674 25.469,70.555 25.588 C 70.436 25.706,69.982 25.935,69.545 26.096 C 69.108 26.257,68.679 26.451,68.592 26.528 C 67.729 27.286,65.498 25.376,65.500 23.880 C 65.500 22.939,66.990 20.833,67.655 20.833 C 67.740 20.833,67.909 20.737,68.030 20.619 C 68.151 20.501,68.550 20.222,68.917 19.999 C 69.283 19.776,69.729 19.460,69.906 19.297 C 70.084 19.134,70.318 19.000,70.425 19.000 C 70.533 19.000,70.882 18.793,71.201 18.539 C 71.984 17.917,76.946 15.451,78.500 14.911 C 79.613 14.524,80.851 14.160,83.583 13.416 C 84.759 13.095,89.482 13.085,90.239 13.401 M99.281 25.142 C 100.919 25.628,101.079 28.555,99.557 30.167 C 97.233 32.626,95.859 33.940,95.068 34.458 C 94.893 34.573,94.267 35.004,93.676 35.417 C 93.085 35.829,92.514 36.167,92.407 36.167 C 92.299 36.167,92.033 36.305,91.814 36.474 C 91.596 36.643,91.042 36.918,90.583 37.086 C 90.125 37.253,89.638 37.483,89.500 37.598 C 89.216 37.835,87.397 38.352,84.833 38.925 C 81.236 39.728,73.983 39.848,70.451 39.163 C 70.012 39.077,67.810 38.927,65.559 38.829 C 58.270 38.511,55.708 38.940,51.218 41.230 C 50.610 41.541,48.541 43.328,48.239 43.804 C 48.084 44.049,47.787 44.438,47.580 44.667 C 47.373 44.896,47.147 45.271,47.078 45.500 C 47.009 45.729,46.781 46.142,46.572 46.417 C 46.363 46.692,46.139 47.142,46.073 47.417 C 46.007 47.692,45.809 48.204,45.633 48.554 C 45.458 48.905,45.132 50.052,44.909 51.103 C 44.687 52.154,44.438 53.142,44.357 53.298 C 44.277 53.455,44.160 53.865,44.098 54.209 C 43.966 54.940,43.095 55.500,42.091 55.500 C 40.340 55.500,39.562 51.092,40.635 47.250 C 40.814 46.608,41.010 45.750,41.071 45.342 C 41.132 44.934,41.252 44.515,41.337 44.412 C 41.423 44.308,41.676 43.742,41.898 43.154 C 42.120 42.565,42.568 41.633,42.893 41.083 C 43.219 40.533,43.632 39.821,43.812 39.500 C 44.550 38.188,47.600 35.804,49.819 34.804 C 54.425 32.730,55.562 32.645,72.583 33.102 C 76.807 33.216,79.890 33.025,81.960 32.521 C 82.670 32.348,83.850 32.076,84.583 31.917 C 85.317 31.757,85.995 31.564,86.090 31.488 C 86.186 31.412,86.636 31.268,87.090 31.167 C 87.545 31.067,88.217 30.842,88.583 30.669 C 88.950 30.495,89.643 30.200,90.124 30.013 C 90.604 29.826,91.296 29.484,91.662 29.253 C 92.028 29.022,92.377 28.833,92.438 28.833 C 92.608 28.833,94.142 27.758,95.167 26.920 C 97.004 25.419,97.685 25.033,98.500 25.033 C 98.729 25.033,99.081 25.082,99.281 25.142 M61.333 44.824 C 62.846 46.349,64.819 48.370,65.719 49.316 C 67.424 51.108,68.306 51.588,68.767 50.976 C 69.066 50.577,69.833 47.953,69.990 46.788 C 70.137 45.704,70.314 45.351,71.244 44.292 C 71.937 43.502,73.051 44.204,73.791 45.894 C 74.188 46.802,74.067 50.988,73.604 52.387 C 73.386 53.045,73.153 53.958,73.087 54.417 C 73.021 54.875,72.750 55.663,72.484 56.167 C 72.218 56.671,72.001 57.189,72.000 57.318 C 72.000 57.446,71.817 57.792,71.592 58.086 C 71.368 58.381,71.137 58.811,71.079 59.042 C 70.964 59.500,67.702 63.007,67.395 63.003 C 67.292 63.001,67.105 63.125,66.979 63.277 C 66.853 63.429,66.426 63.698,66.030 63.873 C 65.634 64.049,65.042 64.374,64.715 64.596 C 64.388 64.818,63.978 65.000,63.805 65.000 C 63.631 65.000,63.098 65.200,62.619 65.445 C 62.095 65.714,61.188 65.973,60.333 66.100 C 59.554 66.216,58.354 66.445,57.667 66.609 C 55.810 67.054,50.804 67.017,47.234 66.531 C 43.455 66.018,36.463 66.000,34.869 66.500 C 34.292 66.680,33.140 66.911,32.308 67.012 C 31.476 67.113,30.315 67.377,29.727 67.598 C 29.140 67.819,28.455 68.001,28.205 68.002 C 27.955 68.003,27.353 68.188,26.869 68.414 C 26.384 68.639,25.671 68.907,25.285 69.008 C 24.899 69.109,24.304 69.373,23.962 69.596 C 23.620 69.818,23.201 70.000,23.030 70.000 C 22.860 70.000,22.465 70.192,22.152 70.426 C 21.839 70.661,21.095 71.167,20.499 71.551 C 19.902 71.936,19.265 72.383,19.082 72.545 C 17.789 73.691,16.212 74.667,15.652 74.667 C 13.926 74.667,13.232 71.372,14.638 69.852 C 16.945 67.359,19.452 65.000,19.796 65.000 C 19.881 65.000,20.144 64.821,20.379 64.603 C 20.615 64.385,21.095 64.055,21.445 63.870 C 23.419 62.828,25.154 62.028,25.667 61.922 C 25.988 61.856,26.625 61.629,27.083 61.417 C 27.542 61.205,28.704 60.914,29.667 60.770 C 30.629 60.625,31.679 60.422,32.000 60.319 C 32.321 60.215,34.158 60.092,36.083 60.046 C 39.549 59.963,40.889 60.058,43.667 60.582 C 45.534 60.934,52.955 61.094,53.500 60.793 C 54.014 60.510,54.007 59.604,53.488 59.083 C 52.475 58.068,51.002 56.395,51.001 56.259 C 51.001 56.172,50.825 55.910,50.610 55.676 C 49.840 54.835,49.207 53.460,49.350 52.939 C 49.524 52.308,50.301 51.199,50.644 51.092 C 52.204 50.608,52.713 50.824,54.486 52.723 C 56.472 54.849,60.459 58.723,60.793 58.850 C 61.492 59.115,62.260 59.017,62.850 58.588 C 63.162 58.361,63.576 58.104,63.770 58.017 C 65.133 57.405,65.098 56.478,63.657 55.016 C 63.423 54.778,62.232 53.421,61.011 52.000 C 59.790 50.579,58.595 49.221,58.354 48.982 C 57.920 48.552,56.698 47.179,55.644 45.937 C 54.164 44.195,55.670 41.661,58.000 41.973 C 58.492 42.039,59.014 42.485,61.333 44.824 M171.463 58.975 C 171.672 59.035,172.106 59.416,172.428 59.823 C 173.293 60.917,173.078 61.564,171.270 63.302 C 170.823 63.732,170.141 64.389,169.753 64.763 C 169.366 65.137,168.982 65.550,168.899 65.682 C 168.664 66.059,166.637 67.762,166.083 68.047 C 165.808 68.189,165.418 68.461,165.215 68.653 C 165.013 68.844,164.783 69.000,164.704 69.000 C 164.625 69.000,164.308 69.225,164.000 69.500 C 162.197 71.110,161.262 69.308,162.921 67.419 C 163.840 66.372,164.290 65.791,165.071 64.641 C 165.298 64.306,166.275 63.221,167.242 62.231 C 168.209 61.240,169.000 60.344,169.000 60.239 C 169.000 60.007,169.650 59.288,170.093 59.032 C 170.447 58.826,170.878 58.808,171.463 58.975 M128.095 61.841 C 128.501 62.121,128.833 62.415,128.833 62.495 C 128.833 62.575,129.087 62.973,129.397 63.379 C 131.024 65.511,131.724 80.228,130.567 88.000 C 130.253 90.114,130.164 93.932,130.420 94.349 C 130.667 94.752,131.582 94.315,131.935 93.627 C 132.088 93.328,132.391 92.871,132.607 92.612 C 132.823 92.353,133.001 92.016,133.003 91.862 C 133.004 91.709,133.228 91.208,133.500 90.750 C 133.772 90.292,133.996 89.751,133.997 89.548 C 133.999 89.345,134.137 89.045,134.305 88.881 C 134.738 88.458,136.167 86.272,136.167 86.033 C 136.167 85.923,136.240 85.833,136.330 85.833 C 136.420 85.833,136.655 85.515,136.853 85.125 C 137.051 84.735,137.354 84.235,137.528 84.013 C 137.701 83.791,137.987 83.285,138.162 82.888 C 138.338 82.491,138.542 82.167,138.616 82.167 C 138.690 82.167,139.126 81.828,139.584 81.414 C 140.042 81.001,140.492 80.595,140.583 80.514 C 140.675 80.432,141.050 80.008,141.417 79.571 C 142.932 77.767,143.452 77.272,144.142 76.975 C 144.541 76.804,145.058 76.514,145.290 76.332 C 145.614 76.077,145.966 76.000,146.810 76.000 L 147.908 76.000 148.954 77.037 C 149.529 77.607,150.000 78.155,150.000 78.254 C 150.000 78.354,150.244 78.806,150.542 79.259 L 151.083 80.083 151.172 90.750 L 151.261 101.417 151.695 102.417 C 152.414 104.073,152.507 106.136,151.890 106.753 C 151.323 107.320,149.000 106.927,149.000 106.265 C 149.000 106.147,148.809 105.691,148.576 105.252 C 148.225 104.592,148.118 104.062,147.959 102.185 C 147.740 99.609,147.741 99.869,147.916 91.583 C 148.118 81.980,147.566 79.792,145.257 81.044 C 144.645 81.376,143.320 82.547,143.110 82.940 C 143.004 83.140,142.530 83.741,142.057 84.277 C 140.502 86.037,140.222 86.410,140.027 86.982 C 139.921 87.293,139.679 87.706,139.491 87.899 C 138.756 88.649,138.000 89.712,138.000 89.993 C 138.000 90.154,137.820 90.552,137.601 90.876 C 137.381 91.199,137.147 91.716,137.081 92.024 C 137.014 92.332,136.744 92.879,136.480 93.241 C 136.216 93.603,136.000 94.021,136.000 94.170 C 136.000 94.320,135.816 94.614,135.592 94.825 C 135.368 95.036,135.134 95.443,135.074 95.729 C 135.014 96.016,134.804 96.513,134.608 96.833 C 134.412 97.154,134.090 97.764,133.893 98.188 C 133.696 98.612,133.458 99.006,133.365 99.064 C 133.272 99.121,133.142 99.484,133.077 99.869 C 133.012 100.254,132.785 100.835,132.573 101.160 C 132.361 101.484,132.135 101.975,132.072 102.250 C 132.009 102.525,131.785 102.938,131.574 103.167 C 131.363 103.396,131.139 103.791,131.076 104.044 C 131.014 104.298,130.795 104.637,130.591 104.797 C 130.387 104.958,130.131 105.254,130.024 105.456 C 129.610 106.230,127.922 106.293,127.312 105.557 C 127.126 105.334,126.182 97.379,126.171 95.954 C 126.169 95.608,126.323 94.896,126.514 94.371 C 126.789 93.617,126.894 92.767,127.015 90.315 C 127.129 88.004,127.261 86.878,127.534 85.898 C 128.223 83.417,128.134 72.219,127.406 69.984 C 127.269 69.563,127.091 68.456,127.010 67.523 C 126.900 66.257,126.769 65.669,126.492 65.205 C 125.682 63.845,125.905 61.637,126.871 61.451 C 127.079 61.411,127.274 61.369,127.303 61.356 C 127.333 61.344,127.689 61.562,128.095 61.841 M100.718 67.852 C 101.377 67.954,102.217 68.210,102.583 68.421 C 102.950 68.632,103.569 68.898,103.958 69.012 C 104.348 69.126,104.667 69.269,104.667 69.329 C 104.667 69.389,104.985 69.617,105.375 69.835 C 105.765 70.053,106.193 70.340,106.327 70.472 C 106.461 70.605,106.798 70.812,107.077 70.933 C 108.247 71.440,109.788 73.266,110.186 74.618 C 110.342 75.149,110.586 75.883,110.727 76.250 C 112.114 79.833,109.107 84.234,106.847 81.931 L 106.125 81.194 105.903 79.222 C 105.781 78.137,105.678 76.816,105.674 76.286 C 105.662 74.747,104.985 73.685,103.537 72.936 C 103.259 72.792,102.924 72.567,102.793 72.436 C 102.661 72.304,101.707 71.956,100.673 71.661 C 98.558 71.059,98.089 71.062,95.667 71.697 C 94.174 72.089,94.314 71.988,92.593 73.917 C 91.905 74.688,90.496 76.513,90.083 77.167 C 89.879 77.490,89.589 77.857,89.439 77.981 C 89.289 78.106,89.167 78.300,89.167 78.412 C 89.167 78.525,88.948 78.919,88.680 79.289 C 88.412 79.658,88.119 80.230,88.028 80.559 C 87.937 80.888,87.716 81.366,87.535 81.620 C 87.355 81.875,87.152 82.346,87.083 82.667 C 87.014 82.987,86.785 83.587,86.573 84.000 C 86.362 84.412,86.137 85.200,86.073 85.750 C 86.009 86.300,85.766 87.125,85.532 87.583 C 84.889 88.846,84.853 94.657,85.483 95.511 C 85.710 95.819,85.973 96.532,86.094 97.165 C 86.278 98.133,86.819 99.269,87.313 99.725 C 87.398 99.803,87.642 100.028,87.857 100.225 C 88.654 100.955,90.101 101.836,90.667 101.934 C 90.987 101.989,91.775 102.222,92.417 102.452 C 93.980 103.011,99.825 102.954,100.947 102.369 C 101.638 102.008,103.717 101.296,105.144 100.930 C 105.635 100.805,106.249 100.545,106.507 100.354 C 106.766 100.163,107.290 99.937,107.671 99.851 C 108.053 99.765,108.527 99.548,108.724 99.368 C 108.922 99.189,109.271 98.946,109.500 98.830 C 109.729 98.713,109.973 98.522,110.043 98.405 C 110.112 98.288,110.450 98.100,110.793 97.989 C 111.136 97.878,111.717 97.527,112.083 97.211 C 113.454 96.027,114.710 94.891,115.550 94.074 C 116.027 93.611,116.854 92.903,117.389 92.502 L 118.361 91.772 118.930 92.079 C 119.821 92.559,119.456 94.552,118.295 95.552 C 117.995 95.810,117.047 96.672,116.188 97.469 C 115.329 98.265,114.451 99.079,114.236 99.278 C 113.602 99.865,111.962 101.000,111.749 101.000 C 111.640 101.000,111.409 101.160,111.234 101.355 C 111.060 101.550,110.616 101.840,110.248 101.999 C 109.880 102.158,109.477 102.411,109.352 102.561 C 109.228 102.711,109.037 102.833,108.928 102.833 C 108.820 102.833,108.210 103.096,107.574 103.416 C 106.937 103.737,106.282 103.999,106.118 103.999 C 105.954 104.000,105.524 104.151,105.163 104.335 C 104.801 104.520,104.011 104.774,103.407 104.901 C 102.777 105.033,102.150 105.281,101.934 105.484 C 101.046 106.318,91.076 106.277,89.567 105.433 C 89.140 105.195,88.705 105.000,88.598 105.000 C 87.917 105.000,84.009 101.976,83.995 101.439 C 83.993 101.335,83.768 100.955,83.495 100.595 C 83.223 100.235,83.000 99.864,83.000 99.771 C 83.000 99.678,82.818 99.335,82.595 99.009 C 82.372 98.683,82.066 97.932,81.915 97.341 C 81.764 96.749,81.517 96.036,81.367 95.757 C 80.900 94.886,80.962 89.637,81.451 88.750 C 81.653 88.383,81.897 87.584,81.993 86.973 C 82.090 86.362,82.355 85.462,82.583 84.973 C 82.810 84.484,82.997 83.912,82.998 83.703 C 82.999 83.493,83.190 82.948,83.422 82.490 C 83.654 82.032,83.914 81.286,84.000 80.833 C 84.086 80.379,84.339 79.725,84.563 79.379 C 84.787 79.033,85.021 78.499,85.085 78.192 C 85.205 77.611,86.286 75.667,86.489 75.667 C 86.553 75.667,86.766 75.381,86.961 75.033 C 87.157 74.684,87.471 74.260,87.659 74.090 C 87.846 73.921,88.000 73.692,88.000 73.583 C 88.000 73.474,88.191 73.167,88.425 72.901 C 88.660 72.635,88.953 72.179,89.078 71.888 C 89.203 71.598,89.480 71.270,89.694 71.159 C 90.109 70.945,91.805 69.701,92.083 69.407 C 93.533 67.874,96.916 67.265,100.718 67.852 M35.299 70.715 C 35.684 71.108,36.000 71.506,36.000 71.599 C 36.000 71.692,36.214 72.105,36.475 72.517 C 36.737 72.930,37.003 73.547,37.067 73.889 C 37.131 74.230,37.361 74.771,37.578 75.091 C 37.794 75.410,38.022 75.971,38.084 76.337 C 38.404 78.229,40.395 78.756,42.054 77.388 C 42.314 77.175,42.616 77.000,42.727 77.000 C 42.838 77.000,43.189 76.778,43.506 76.507 C 43.824 76.235,44.164 76.010,44.262 76.007 C 44.360 76.003,44.682 75.784,44.978 75.520 C 47.393 73.363,50.955 75.575,49.217 78.151 C 48.473 79.254,46.103 81.271,44.679 82.013 C 44.305 82.208,44.000 82.424,44.000 82.494 C 44.000 82.564,43.644 82.754,43.208 82.916 C 42.773 83.079,42.267 83.338,42.083 83.494 C 41.900 83.649,41.412 83.872,41.000 83.988 C 40.587 84.104,40.137 84.299,40.000 84.421 C 39.862 84.543,39.198 84.795,38.524 84.982 C 37.850 85.169,37.205 85.399,37.092 85.492 C 36.979 85.586,36.294 85.781,35.569 85.925 C 34.843 86.069,33.912 86.325,33.500 86.495 C 31.922 87.144,25.863 87.414,24.753 86.885 C 23.828 86.443,23.532 84.490,24.229 83.426 C 24.519 82.983,26.597 82.168,27.907 81.983 C 30.676 81.592,31.177 81.489,32.374 81.069 C 34.107 80.460,34.414 79.455,33.307 78.019 C 33.138 77.801,33.000 77.417,33.000 77.167 C 33.000 76.918,32.816 76.443,32.592 76.112 C 32.367 75.781,32.131 75.227,32.067 74.880 C 32.003 74.534,31.812 73.847,31.644 73.355 C 31.263 72.242,31.458 71.351,32.316 70.292 C 32.832 69.654,34.488 69.888,35.299 70.715 M244.434 73.507 C 247.221 73.732,249.385 74.085,249.866 74.393 C 250.077 74.528,250.656 74.757,251.153 74.902 C 251.649 75.047,252.174 75.268,252.319 75.393 C 252.465 75.518,252.940 75.754,253.375 75.916 C 253.810 76.079,254.167 76.263,254.167 76.325 C 254.167 76.388,254.457 76.602,254.813 76.802 C 255.990 77.463,258.303 79.992,259.047 81.430 C 259.192 81.711,259.425 82.035,259.564 82.150 C 259.703 82.266,259.899 82.635,260.000 82.972 C 260.101 83.308,260.362 83.958,260.581 84.417 C 261.761 86.885,262.213 92.128,261.314 92.903 C 260.797 93.348,257.159 93.493,246.015 93.509 C 239.556 93.519,234.597 93.786,233.799 94.166 L 233.347 94.381 233.715 94.866 C 234.268 95.596,236.555 97.833,236.748 97.834 C 236.841 97.834,237.329 98.051,237.833 98.316 C 239.730 99.312,245.485 99.790,248.000 99.161 C 248.321 99.081,249.311 98.942,250.200 98.853 C 251.127 98.759,252.141 98.546,252.578 98.353 C 252.997 98.167,253.807 97.967,254.378 97.908 C 254.949 97.849,255.893 97.658,256.476 97.483 C 258.646 96.835,260.465 97.494,261.318 99.237 C 262.183 101.008,260.904 103.573,258.972 103.942 C 258.666 104.001,258.079 104.217,257.667 104.422 C 257.254 104.628,256.384 104.878,255.734 104.979 C 255.083 105.079,254.062 105.313,253.464 105.497 C 252.867 105.682,251.487 105.910,250.397 106.005 C 249.308 106.099,248.079 106.246,247.667 106.331 C 245.352 106.808,238.238 106.213,236.651 105.409 C 236.207 105.184,235.758 105.000,235.652 105.000 C 234.633 105.000,230.525 102.246,229.313 100.750 C 228.022 99.156,227.143 97.830,226.828 97.000 C 226.706 96.679,226.470 96.238,226.303 96.019 C 226.136 95.801,225.999 95.463,225.998 95.269 C 225.997 95.075,225.884 94.504,225.747 94.000 C 225.321 92.430,225.142 90.070,225.337 88.587 C 225.672 86.039,226.154 84.034,226.584 83.400 C 226.813 83.063,227.000 82.658,227.000 82.500 C 227.000 82.342,227.225 81.929,227.500 81.583 C 227.775 81.237,228.000 80.896,228.000 80.824 C 228.000 80.354,233.175 75.833,233.714 75.833 C 233.797 75.833,234.080 75.680,234.344 75.493 C 234.607 75.305,235.212 75.036,235.690 74.894 C 236.167 74.753,236.716 74.533,236.909 74.406 C 237.983 73.703,241.562 73.275,244.434 73.507 M298.020 73.759 C 299.063 73.905,300.104 74.127,300.333 74.253 C 300.563 74.380,301.012 74.615,301.333 74.776 C 304.470 76.352,305.997 79.404,304.500 81.109 C 304.225 81.422,304.000 81.749,304.000 81.836 C 304.000 82.415,300.738 83.019,300.416 82.500 C 300.360 82.408,299.989 82.185,299.593 82.004 C 299.197 81.824,298.834 81.575,298.787 81.452 C 298.412 80.476,294.381 80.502,293.250 81.489 C 293.067 81.649,292.654 81.882,292.333 82.007 C 292.012 82.132,291.299 82.582,290.748 83.007 C 290.197 83.431,289.569 83.874,289.353 83.989 C 288.785 84.294,287.213 85.522,286.263 86.404 C 285.812 86.824,285.389 87.167,285.323 87.167 C 284.652 87.167,284.378 96.122,285.010 97.417 C 285.321 98.056,285.584 98.094,291.333 98.324 C 296.552 98.532,297.207 98.668,298.333 99.781 L 299.083 100.522 299.083 101.903 C 299.083 103.361,298.487 104.439,297.426 104.899 C 297.009 105.079,273.135 105.256,271.583 105.089 C 268.846 104.796,267.757 101.474,269.774 99.571 C 270.481 98.905,270.953 98.767,273.750 98.410 C 276.219 98.095,276.935 97.909,277.073 97.550 C 277.654 96.036,277.440 81.873,276.826 81.260 C 276.730 81.163,275.750 81.038,274.650 80.982 C 270.031 80.748,268.715 76.610,272.634 74.643 L 273.750 74.083 278.497 74.131 C 283.808 74.185,283.744 74.171,284.232 75.357 C 284.914 77.011,285.181 77.516,285.420 77.608 C 285.688 77.711,287.307 76.943,287.826 76.466 C 287.997 76.310,288.837 75.834,289.693 75.410 C 290.549 74.985,291.466 74.521,291.729 74.380 C 292.374 74.034,295.328 73.336,295.770 73.425 C 295.965 73.464,296.977 73.614,298.020 73.759 M199.635 73.856 C 200.065 73.960,201.017 74.442,201.750 74.926 C 202.483 75.411,203.196 75.822,203.333 75.840 C 203.986 75.926,204.457 75.798,204.901 75.416 C 205.167 75.187,205.476 75.000,205.586 75.000 C 205.696 75.000,206.079 74.799,206.435 74.553 C 207.568 73.771,211.642 73.396,214.094 73.849 C 216.599 74.312,219.792 77.472,220.079 79.775 C 220.143 80.287,220.312 81.017,220.455 81.395 C 220.667 81.958,220.742 83.499,220.864 89.832 L 221.015 97.580 221.466 98.055 C 221.714 98.317,222.191 98.672,222.527 98.844 C 224.905 100.068,225.651 102.155,224.304 103.811 C 223.396 104.927,223.163 104.983,218.911 105.111 C 213.398 105.278,213.645 105.479,213.551 100.750 C 213.518 99.100,213.424 94.172,213.342 89.799 C 213.173 80.866,213.202 81.061,212.025 80.688 C 210.268 80.131,207.536 81.722,206.221 84.068 C 206.046 84.380,205.924 90.585,205.985 96.115 C 206.002 97.647,206.525 98.424,207.833 98.858 C 208.154 98.965,208.773 99.352,209.208 99.719 L 210.000 100.386 210.000 101.917 L 210.000 103.448 209.184 104.136 C 208.093 105.055,207.532 105.158,203.553 105.163 C 200.286 105.167,199.413 105.058,199.131 104.615 C 199.062 104.506,199.004 99.467,199.002 93.417 C 198.999 80.871,199.086 81.641,197.583 80.814 C 196.422 80.175,196.279 80.185,194.393 81.042 C 193.924 81.255,192.318 82.745,191.675 83.565 L 191.167 84.213 191.167 90.998 L 191.167 97.784 192.011 98.308 C 192.475 98.597,193.003 98.833,193.182 98.833 C 193.766 98.833,194.975 100.313,195.089 101.167 C 195.240 102.303,195.241 102.372,195.115 103.009 C 194.746 104.870,193.776 105.122,186.883 105.151 C 182.415 105.170,181.855 105.073,180.792 104.096 L 180.000 103.369 180.000 101.858 L 180.000 100.347 180.681 99.715 C 181.056 99.368,181.624 98.992,181.943 98.879 C 182.609 98.646,183.489 97.957,183.786 97.438 C 183.936 97.175,183.990 95.181,183.994 89.721 L 184.000 82.359 183.562 81.839 C 183.322 81.553,182.827 81.167,182.464 80.982 C 181.084 80.277,180.182 79.504,180.092 78.947 C 179.696 76.504,180.135 75.609,182.238 74.571 L 183.226 74.083 186.828 74.083 L 190.431 74.083 190.927 74.640 C 191.517 75.300,192.231 75.268,193.297 74.535 C 194.454 73.739,197.711 73.390,199.635 73.856 M331.702 73.847 C 333.346 74.021,334.402 74.368,336.000 75.261 C 336.229 75.390,336.687 75.629,337.017 75.793 C 337.525 76.045,338.165 76.567,338.917 77.342 C 339.008 77.437,339.290 77.711,339.542 77.951 C 339.794 78.192,340.000 78.474,340.000 78.578 C 340.000 78.683,340.219 79.114,340.488 79.537 C 341.134 80.557,341.141 80.630,341.341 88.967 C 341.576 98.782,341.396 98.295,345.011 98.904 C 348.006 99.408,347.712 104.331,344.648 104.988 C 342.987 105.345,335.658 105.218,334.752 104.817 C 334.271 104.604,333.791 104.504,333.523 104.562 C 333.281 104.613,332.558 104.759,331.917 104.885 C 331.275 105.011,330.438 105.274,330.057 105.469 C 329.554 105.727,328.913 105.853,327.724 105.929 C 326.821 105.986,325.821 106.098,325.500 106.178 C 323.904 106.575,322.578 106.655,321.580 106.414 C 321.032 106.281,319.873 106.095,319.005 106.001 C 317.814 105.870,317.283 105.731,316.839 105.431 C 316.515 105.212,316.063 104.978,315.833 104.909 C 315.604 104.841,315.192 104.617,314.917 104.412 C 314.642 104.207,314.229 103.985,314.000 103.918 C 313.562 103.792,312.000 102.376,312.000 102.105 C 312.000 102.019,311.814 101.705,311.587 101.407 C 311.360 101.110,311.017 100.465,310.824 99.975 C 310.630 99.485,310.385 98.979,310.278 98.850 C 309.450 97.853,310.411 93.053,311.665 91.918 C 311.849 91.751,312.000 91.541,312.000 91.450 C 312.000 91.105,315.381 87.837,315.745 87.830 C 315.840 87.829,316.247 87.604,316.650 87.330 C 317.053 87.057,317.503 86.831,317.650 86.828 C 317.797 86.825,318.365 86.600,318.912 86.328 C 319.460 86.056,320.110 85.833,320.356 85.833 C 320.602 85.833,321.279 85.680,321.860 85.492 C 323.440 84.982,327.097 84.777,330.530 85.005 C 334.110 85.243,334.264 85.179,334.096 83.510 C 333.818 80.751,330.521 79.845,324.063 80.752 C 322.424 80.982,320.746 81.299,320.333 81.456 C 318.087 82.312,314.622 81.534,313.977 80.030 C 312.911 77.543,314.471 75.393,317.750 74.828 C 318.392 74.718,319.153 74.519,319.442 74.386 C 320.745 73.787,328.074 73.465,331.702 73.847 M168.307 76.655 C 169.139 77.641,169.190 78.177,168.607 79.813 C 168.267 80.766,168.200 81.340,168.114 84.025 C 168.031 86.634,167.957 87.291,167.655 88.109 C 167.458 88.645,167.226 89.832,167.141 90.750 C 167.055 91.667,166.876 93.145,166.743 94.034 C 166.465 95.888,166.444 97.257,166.677 98.333 C 166.767 98.746,166.886 99.383,166.943 99.750 C 167.128 100.956,168.852 101.352,169.946 100.441 C 170.205 100.225,170.689 99.960,171.022 99.851 C 171.354 99.743,171.753 99.514,171.909 99.342 C 172.064 99.170,172.392 98.980,172.637 98.919 C 173.101 98.803,174.707 97.643,175.052 97.174 C 176.749 94.867,180.000 94.017,180.000 95.881 C 180.000 96.645,176.181 100.821,174.472 101.925 C 174.136 102.142,173.812 102.399,173.753 102.496 C 173.693 102.593,173.402 102.773,173.107 102.896 C 172.812 103.019,172.440 103.250,172.282 103.408 C 171.762 103.928,170.370 104.818,169.889 104.938 C 169.629 105.003,169.042 105.230,168.583 105.443 C 166.500 106.411,164.490 105.168,163.557 102.333 C 162.969 100.546,162.855 95.507,163.365 93.833 C 163.678 92.807,163.773 91.880,164.000 87.667 C 164.087 86.063,164.235 84.479,164.330 84.148 C 164.425 83.818,164.568 82.084,164.648 80.296 C 164.839 76.030,164.899 75.912,166.932 75.853 C 167.555 75.835,167.675 75.906,168.307 76.655 M240.361 80.747 C 239.323 80.963,238.348 81.252,238.195 81.389 C 238.042 81.526,237.612 81.760,237.240 81.908 C 235.851 82.461,233.575 85.146,234.073 85.644 C 234.549 86.121,252.063 86.143,252.831 85.668 C 253.501 85.254,251.462 82.761,249.865 82.041 C 249.527 81.889,249.100 81.635,248.917 81.477 C 247.847 80.555,243.196 80.159,240.361 80.747 M324.083 92.329 C 322.774 92.548,320.960 93.135,320.465 93.500 C 320.217 93.683,319.951 93.833,319.875 93.833 C 319.318 93.833,317.459 96.033,317.269 96.917 C 317.092 97.736,318.364 98.712,320.068 99.064 C 322.483 99.564,327.762 99.147,329.049 98.356 C 329.343 98.176,329.883 97.975,330.250 97.909 C 333.075 97.406,335.320 94.520,333.917 93.194 C 333.227 92.543,326.395 91.941,324.083 92.329 " stroke="none" fill="#3c5cfb" fill-rule="evenodd"></path><path id="path1" d="M56.883 41.989 C 55.284 42.271,54.541 44.639,55.644 45.937 C 56.698 47.179,57.920 48.552,58.354 48.982 C 58.595 49.221,59.790 50.579,61.011 52.000 C 62.232 53.421,63.423 54.778,63.657 55.016 C 65.098 56.478,65.133 57.405,63.770 58.017 C 63.576 58.104,63.162 58.361,62.850 58.588 C 62.260 59.017,61.492 59.115,60.793 58.850 C 60.459 58.723,56.472 54.849,54.486 52.723 C 52.713 50.824,52.204 50.608,50.644 51.092 C 50.301 51.199,49.524 52.308,49.350 52.939 C 49.207 53.460,49.840 54.835,50.610 55.676 C 50.825 55.910,51.001 56.172,51.001 56.259 C 51.002 56.395,52.475 58.068,53.488 59.083 C 54.007 59.604,54.014 60.510,53.500 60.793 C 52.955 61.094,45.534 60.934,43.667 60.582 C 40.889 60.058,39.549 59.963,36.083 60.046 C 34.158 60.092,32.321 60.215,32.000 60.319 C 31.679 60.422,30.629 60.625,29.667 60.770 C 28.704 60.914,27.542 61.205,27.083 61.417 C 26.625 61.629,25.988 61.856,25.667 61.922 C 25.154 62.028,23.419 62.828,21.445 63.870 C 21.095 64.055,20.615 64.385,20.379 64.603 C 20.144 64.821,19.881 65.000,19.796 65.000 C 19.452 65.000,16.945 67.359,14.638 69.852 C 13.452 71.133,13.553 73.323,14.839 74.208 C 15.868 74.917,16.832 74.539,19.082 72.545 C 19.265 72.383,19.902 71.936,20.499 71.551 C 21.095 71.167,21.839 70.661,22.152 70.426 C 22.465 70.192,22.860 70.000,23.030 70.000 C 23.201 70.000,23.620 69.818,23.962 69.596 C 24.304 69.373,24.899 69.109,25.285 69.008 C 25.671 68.907,26.384 68.639,26.869 68.414 C 27.353 68.188,27.955 68.003,28.205 68.002 C 28.455 68.001,29.140 67.819,29.727 67.598 C 30.315 67.377,31.476 67.113,32.308 67.012 C 33.140 66.911,34.292 66.680,34.869 66.500 C 36.463 66.000,43.455 66.018,47.234 66.531 C 50.804 67.017,55.810 67.054,57.667 66.609 C 58.354 66.445,59.554 66.216,60.333 66.100 C 61.188 65.973,62.095 65.714,62.619 65.445 C 63.098 65.200,63.631 65.000,63.805 65.000 C 63.978 65.000,64.388 64.818,64.715 64.596 C 65.042 64.374,65.634 64.049,66.030 63.873 C 66.426 63.698,66.853 63.429,66.979 63.277 C 67.105 63.125,67.292 63.001,67.395 63.003 C 67.702 63.007,70.964 59.500,71.079 59.042 C 71.137 58.811,71.368 58.381,71.592 58.086 C 71.817 57.792,72.000 57.446,72.000 57.318 C 72.001 57.189,72.218 56.671,72.484 56.167 C 72.750 55.663,73.021 54.875,73.087 54.417 C 73.153 53.958,73.386 53.045,73.604 52.387 C 74.067 50.988,74.188 46.802,73.791 45.894 C 73.051 44.204,71.937 43.502,71.244 44.292 C 70.314 45.351,70.137 45.704,69.990 46.788 C 69.833 47.953,69.066 50.577,68.767 50.976 C 68.306 51.588,67.424 51.108,65.719 49.316 C 59.045 42.301,58.355 41.729,56.883 41.989 M170.093 59.032 C 169.650 59.288,169.000 60.007,169.000 60.239 C 169.000 60.344,168.209 61.240,167.242 62.231 C 166.275 63.221,165.298 64.306,165.071 64.641 C 164.290 65.791,163.840 66.372,162.921 67.419 C 161.262 69.308,162.197 71.110,164.000 69.500 C 164.308 69.225,164.625 69.000,164.704 69.000 C 164.783 69.000,165.013 68.844,165.215 68.653 C 165.418 68.461,165.808 68.189,166.083 68.047 C 166.637 67.762,168.664 66.059,168.899 65.682 C 168.982 65.550,169.366 65.137,169.753 64.763 C 170.141 64.389,170.823 63.732,171.270 63.302 C 173.078 61.564,173.293 60.917,172.428 59.823 C 171.695 58.896,170.830 58.603,170.093 59.032 M126.871 61.451 C 125.905 61.637,125.682 63.845,126.492 65.205 C 126.769 65.669,126.900 66.257,127.010 67.523 C 127.091 68.456,127.269 69.563,127.406 69.984 C 128.134 72.219,128.223 83.417,127.534 85.898 C 127.261 86.878,127.129 88.004,127.015 90.315 C 126.894 92.767,126.789 93.617,126.514 94.371 C 126.323 94.896,126.169 95.608,126.171 95.954 C 126.182 97.379,127.126 105.334,127.312 105.557 C 127.922 106.293,129.610 106.230,130.024 105.456 C 130.131 105.254,130.387 104.958,130.591 104.797 C 130.795 104.637,131.014 104.298,131.076 104.044 C 131.139 103.791,131.363 103.396,131.574 103.167 C 131.785 102.938,132.009 102.525,132.072 102.250 C 132.135 101.975,132.361 101.484,132.573 101.160 C 132.785 100.835,133.012 100.254,133.077 99.869 C 133.142 99.484,133.272 99.121,133.365 99.064 C 133.458 99.006,133.696 98.612,133.893 98.188 C 134.090 97.764,134.412 97.154,134.608 96.833 C 134.804 96.513,135.014 96.016,135.074 95.729 C 135.134 95.443,135.368 95.036,135.592 94.825 C 135.816 94.614,136.000 94.320,136.000 94.170 C 136.000 94.021,136.216 93.603,136.480 93.241 C 136.744 92.879,137.014 92.332,137.081 92.024 C 137.147 91.716,137.381 91.199,137.601 90.876 C 137.820 90.552,138.000 90.154,138.000 89.993 C 138.000 89.712,138.756 88.649,139.491 87.899 C 139.679 87.706,139.921 87.293,140.027 86.982 C 140.222 86.410,140.502 86.037,142.057 84.277 C 142.530 83.741,143.004 83.140,143.110 82.940 C 143.320 82.547,144.645 81.376,145.257 81.044 C 147.566 79.792,148.118 81.980,147.916 91.583 C 147.741 99.869,147.740 99.609,147.959 102.185 C 148.118 104.062,148.225 104.592,148.576 105.252 C 148.809 105.691,149.000 106.147,149.000 106.265 C 149.000 106.927,151.323 107.320,151.890 106.753 C 152.507 106.136,152.414 104.073,151.695 102.417 L 151.261 101.417 151.172 90.750 L 151.083 80.083 150.542 79.259 C 150.244 78.806,150.000 78.354,150.000 78.254 C 150.000 78.155,149.529 77.607,148.954 77.037 L 147.908 76.000 146.810 76.000 C 145.966 76.000,145.614 76.077,145.290 76.332 C 145.058 76.514,144.541 76.804,144.142 76.975 C 143.452 77.272,142.932 77.767,141.417 79.571 C 141.050 80.008,140.675 80.432,140.583 80.514 C 140.492 80.595,140.042 81.001,139.584 81.414 C 139.126 81.828,138.690 82.167,138.616 82.167 C 138.542 82.167,138.338 82.491,138.162 82.888 C 137.987 83.285,137.701 83.791,137.528 84.013 C 137.354 84.235,137.051 84.735,136.853 85.125 C 136.655 85.515,136.420 85.833,136.330 85.833 C 136.240 85.833,136.167 85.923,136.167 86.033 C 136.167 86.272,134.738 88.458,134.305 88.881 C 134.137 89.045,133.999 89.345,133.997 89.548 C 133.996 89.751,133.772 90.292,133.500 90.750 C 133.228 91.208,133.004 91.709,133.003 91.862 C 133.001 92.016,132.823 92.353,132.607 92.612 C 132.391 92.871,132.088 93.328,131.935 93.627 C 131.582 94.315,130.667 94.752,130.420 94.349 C 130.164 93.932,130.253 90.114,130.567 88.000 C 131.724 80.228,131.024 65.511,129.397 63.379 C 129.087 62.973,128.833 62.575,128.833 62.495 C 128.833 62.359,127.420 61.306,127.303 61.356 C 127.274 61.369,127.079 61.411,126.871 61.451 M94.500 67.971 C 93.779 68.239,92.430 69.041,92.083 69.407 C 91.805 69.701,90.109 70.945,89.694 71.159 C 89.480 71.270,89.203 71.598,89.078 71.888 C 88.953 72.179,88.660 72.635,88.425 72.901 C 88.191 73.167,88.000 73.474,88.000 73.583 C 88.000 73.692,87.846 73.921,87.659 74.090 C 87.471 74.260,87.157 74.684,86.961 75.033 C 86.766 75.381,86.553 75.667,86.489 75.667 C 86.286 75.667,85.205 77.611,85.085 78.192 C 85.021 78.499,84.787 79.033,84.563 79.379 C 84.339 79.725,84.086 80.379,84.000 80.833 C 83.914 81.286,83.654 82.032,83.422 82.490 C 83.190 82.948,82.999 83.493,82.998 83.703 C 82.997 83.912,82.810 84.484,82.583 84.973 C 82.355 85.462,82.090 86.362,81.993 86.973 C 81.897 87.584,81.653 88.383,81.451 88.750 C 80.962 89.637,80.900 94.886,81.367 95.757 C 81.517 96.036,81.764 96.749,81.915 97.341 C 82.066 97.932,82.372 98.683,82.595 99.009 C 82.818 99.335,83.000 99.678,83.000 99.771 C 83.000 99.864,83.223 100.235,83.495 100.595 C 83.768 100.955,83.993 101.335,83.995 101.439 C 84.009 101.976,87.917 105.000,88.598 105.000 C 88.705 105.000,89.140 105.195,89.567 105.433 C 91.076 106.277,101.046 106.318,101.934 105.484 C 102.150 105.281,102.777 105.033,103.407 104.901 C 104.011 104.774,104.801 104.520,105.163 104.335 C 105.524 104.151,105.954 104.000,106.118 103.999 C 106.282 103.999,106.937 103.737,107.574 103.416 C 108.210 103.096,108.820 102.833,108.928 102.833 C 109.037 102.833,109.228 102.711,109.352 102.561 C 109.477 102.411,109.880 102.158,110.248 101.999 C 110.616 101.840,111.060 101.550,111.234 101.355 C 111.409 101.160,111.640 101.000,111.749 101.000 C 111.962 101.000,113.602 99.865,114.236 99.278 C 114.451 99.079,115.329 98.265,116.188 97.469 C 117.047 96.672,117.995 95.810,118.295 95.552 C 119.456 94.552,119.821 92.559,118.930 92.079 L 118.361 91.772 117.389 92.502 C 116.854 92.903,116.027 93.611,115.550 94.074 C 114.710 94.891,113.454 96.027,112.083 97.211 C 111.717 97.527,111.136 97.878,110.793 97.989 C 110.450 98.100,110.112 98.288,110.043 98.405 C 109.973 98.522,109.729 98.713,109.500 98.830 C 109.271 98.946,108.922 99.189,108.724 99.368 C 108.527 99.548,108.053 99.765,107.671 99.851 C 107.290 99.937,106.766 100.163,106.507 100.354 C 106.249 100.545,105.635 100.805,105.144 100.930 C 103.717 101.296,101.638 102.008,100.947 102.369 C 99.825 102.954,93.980 103.011,92.417 102.452 C 91.775 102.222,90.987 101.989,90.667 101.934 C 90.101 101.836,88.654 100.955,87.857 100.225 C 87.642 100.028,87.398 99.803,87.313 99.725 C 86.819 99.269,86.278 98.133,86.094 97.165 C 85.973 96.532,85.710 95.819,85.483 95.511 C 84.853 94.657,84.889 88.846,85.532 87.583 C 85.766 87.125,86.009 86.300,86.073 85.750 C 86.137 85.200,86.362 84.412,86.573 84.000 C 86.785 83.587,87.014 82.987,87.083 82.667 C 87.152 82.346,87.355 81.875,87.535 81.620 C 87.716 81.366,87.937 80.888,88.028 80.559 C 88.119 80.230,88.412 79.658,88.680 79.289 C 88.948 78.919,89.167 78.525,89.167 78.412 C 89.167 78.300,89.289 78.106,89.439 77.981 C 89.589 77.857,89.879 77.490,90.083 77.167 C 90.496 76.513,91.905 74.688,92.593 73.917 C 94.314 71.988,94.174 72.089,95.667 71.697 C 98.089 71.062,98.558 71.059,100.673 71.661 C 101.707 71.956,102.661 72.304,102.793 72.436 C 102.924 72.567,103.259 72.792,103.537 72.936 C 104.985 73.685,105.662 74.747,105.674 76.286 C 105.678 76.816,105.781 78.137,105.903 79.222 L 106.125 81.194 106.847 81.931 C 109.107 84.234,112.114 79.833,110.727 76.250 C 110.586 75.883,110.342 75.149,110.186 74.618 C 109.788 73.266,108.247 71.440,107.077 70.933 C 106.798 70.812,106.461 70.605,106.327 70.472 C 106.193 70.340,105.765 70.053,105.375 69.835 C 104.985 69.617,104.667 69.389,104.667 69.329 C 104.667 69.269,104.348 69.126,103.958 69.012 C 103.569 68.898,102.950 68.632,102.583 68.421 C 101.259 67.658,96.112 67.372,94.500 67.971 M32.316 70.292 C 31.458 71.351,31.263 72.242,31.644 73.355 C 31.812 73.847,32.003 74.534,32.067 74.880 C 32.131 75.227,32.367 75.781,32.592 76.112 C 32.816 76.443,33.000 76.918,33.000 77.167 C 33.000 77.417,33.138 77.801,33.307 78.019 C 34.414 79.455,34.107 80.460,32.374 81.069 C 31.177 81.489,30.676 81.592,27.907 81.983 C 26.597 82.168,24.519 82.983,24.229 83.426 C 23.532 84.490,23.828 86.443,24.753 86.885 C 25.863 87.414,31.922 87.144,33.500 86.495 C 33.912 86.325,34.843 86.069,35.569 85.925 C 36.294 85.781,36.979 85.586,37.092 85.492 C 37.205 85.399,37.850 85.169,38.524 84.982 C 39.198 84.795,39.862 84.543,40.000 84.421 C 40.137 84.299,40.587 84.104,41.000 83.988 C 41.412 83.872,41.900 83.649,42.083 83.494 C 42.267 83.338,42.773 83.079,43.208 82.916 C 43.644 82.754,44.000 82.564,44.000 82.494 C 44.000 82.424,44.305 82.208,44.679 82.013 C 46.103 81.271,48.473 79.254,49.217 78.151 C 50.955 75.575,47.393 73.363,44.978 75.520 C 44.682 75.784,44.360 76.003,44.262 76.007 C 44.164 76.010,43.824 76.235,43.506 76.507 C 43.189 76.778,42.838 77.000,42.727 77.000 C 42.616 77.000,42.314 77.175,42.054 77.388 C 40.395 78.756,38.404 78.229,38.084 76.337 C 38.022 75.971,37.794 75.410,37.578 75.091 C 37.361 74.771,37.131 74.230,37.067 73.889 C 37.003 73.547,36.737 72.930,36.475 72.517 C 36.214 72.105,36.000 71.692,36.000 71.599 C 36.000 70.490,33.013 69.430,32.316 70.292 M239.255 73.774 C 238.158 73.995,237.102 74.280,236.909 74.406 C 236.716 74.533,236.167 74.753,235.690 74.894 C 235.212 75.036,234.607 75.305,234.344 75.493 C 234.080 75.680,233.797 75.833,233.714 75.833 C 233.175 75.833,228.000 80.354,228.000 80.824 C 228.000 80.896,227.775 81.237,227.500 81.583 C 227.225 81.929,227.000 82.342,227.000 82.500 C 227.000 82.658,226.813 83.063,226.584 83.400 C 226.154 84.034,225.672 86.039,225.337 88.587 C 225.142 90.070,225.321 92.430,225.747 94.000 C 225.884 94.504,225.997 95.075,225.998 95.269 C 225.999 95.463,226.136 95.801,226.303 96.019 C 226.470 96.238,226.706 96.679,226.828 97.000 C 227.143 97.830,228.022 99.156,229.313 100.750 C 230.525 102.246,234.633 105.000,235.652 105.000 C 235.758 105.000,236.207 105.184,236.651 105.409 C 238.238 106.213,245.352 106.808,247.667 106.331 C 248.079 106.246,249.308 106.099,250.397 106.005 C 251.487 105.910,252.867 105.682,253.464 105.497 C 254.062 105.313,255.083 105.079,255.734 104.979 C 256.384 104.878,257.254 104.628,257.667 104.422 C 258.079 104.217,258.666 104.001,258.972 103.942 C 260.148 103.718,261.646 101.920,261.695 100.675 C 261.789 98.270,259.181 96.675,256.476 97.483 C 255.893 97.658,254.949 97.849,254.378 97.908 C 253.807 97.967,252.997 98.167,252.578 98.353 C 252.141 98.546,251.127 98.759,250.200 98.853 C 249.311 98.942,248.321 99.081,248.000 99.161 C 245.485 99.790,239.730 99.312,237.833 98.316 C 237.329 98.051,236.841 97.834,236.748 97.834 C 236.555 97.833,234.268 95.596,233.715 94.866 L 233.347 94.381 233.799 94.166 C 234.597 93.786,239.556 93.519,246.015 93.509 C 257.159 93.493,260.797 93.348,261.314 92.903 C 262.213 92.128,261.761 86.885,260.581 84.417 C 260.362 83.958,260.101 83.308,260.000 82.972 C 259.899 82.635,259.703 82.266,259.564 82.150 C 259.425 82.035,259.192 81.711,259.047 81.430 C 258.303 79.992,255.990 77.463,254.813 76.802 C 254.457 76.602,254.167 76.388,254.167 76.325 C 254.167 76.263,253.810 76.079,253.375 75.916 C 252.940 75.754,252.465 75.518,252.319 75.393 C 252.174 75.268,251.649 75.047,251.153 74.902 C 250.656 74.757,250.077 74.528,249.866 74.393 C 248.511 73.526,242.283 73.163,239.255 73.774 M293.813 73.738 C 292.930 73.950,291.993 74.239,291.729 74.380 C 291.466 74.521,290.549 74.985,289.693 75.410 C 288.837 75.834,287.997 76.310,287.826 76.466 C 287.307 76.943,285.688 77.711,285.420 77.608 C 285.181 77.516,284.914 77.011,284.232 75.357 C 283.744 74.171,283.808 74.185,278.497 74.131 L 273.750 74.083 272.634 74.643 C 268.715 76.610,270.031 80.748,274.650 80.982 C 275.750 81.038,276.730 81.163,276.826 81.260 C 277.440 81.873,277.654 96.036,277.073 97.550 C 276.935 97.909,276.219 98.095,273.750 98.410 C 270.953 98.767,270.481 98.905,269.774 99.571 C 267.757 101.474,268.846 104.796,271.583 105.089 C 273.135 105.256,297.009 105.079,297.426 104.899 C 298.487 104.439,299.083 103.361,299.083 101.903 L 299.083 100.522 298.333 99.781 C 297.207 98.668,296.552 98.532,291.333 98.324 C 285.584 98.094,285.321 98.056,285.010 97.417 C 284.378 96.122,284.652 87.167,285.323 87.167 C 285.389 87.167,285.812 86.824,286.263 86.404 C 287.213 85.522,288.785 84.294,289.353 83.989 C 289.569 83.874,290.197 83.431,290.748 83.007 C 291.299 82.582,292.012 82.132,292.333 82.007 C 292.654 81.882,293.067 81.649,293.250 81.489 C 294.381 80.502,298.412 80.476,298.787 81.452 C 298.834 81.575,299.197 81.824,299.593 82.004 C 299.989 82.185,300.360 82.408,300.416 82.500 C 300.738 83.019,304.000 82.415,304.000 81.836 C 304.000 81.749,304.225 81.422,304.500 81.109 C 305.997 79.404,304.470 76.352,301.333 74.776 C 301.012 74.615,300.563 74.380,300.333 74.253 C 300.104 74.127,299.063 73.905,298.020 73.759 C 296.977 73.614,295.965 73.464,295.770 73.425 C 295.576 73.386,294.695 73.527,293.813 73.738 M194.750 73.902 C 194.292 74.015,193.638 74.300,193.297 74.535 C 192.231 75.268,191.517 75.300,190.927 74.640 L 190.431 74.083 186.828 74.083 L 183.226 74.083 182.238 74.571 C 180.135 75.609,179.696 76.504,180.092 78.947 C 180.182 79.504,181.084 80.277,182.464 80.982 C 182.827 81.167,183.322 81.553,183.562 81.839 L 184.000 82.359 183.994 89.721 C 183.990 95.181,183.936 97.175,183.786 97.438 C 183.489 97.957,182.609 98.646,181.943 98.879 C 181.624 98.992,181.056 99.368,180.681 99.715 L 180.000 100.347 180.000 101.858 L 180.000 103.369 180.792 104.096 C 181.855 105.073,182.415 105.170,186.883 105.151 C 193.776 105.122,194.746 104.870,195.115 103.009 C 195.241 102.372,195.240 102.303,195.089 101.167 C 194.975 100.313,193.766 98.833,193.182 98.833 C 193.003 98.833,192.475 98.597,192.011 98.308 L 191.167 97.784 191.167 90.998 L 191.167 84.213 191.675 83.565 C 192.318 82.745,193.924 81.255,194.393 81.042 C 196.279 80.185,196.422 80.175,197.583 80.814 C 199.086 81.641,198.999 80.871,199.002 93.417 C 199.004 99.467,199.062 104.506,199.131 104.615 C 199.413 105.058,200.286 105.167,203.553 105.163 C 207.532 105.158,208.093 105.055,209.184 104.136 L 210.000 103.448 210.000 101.917 L 210.000 100.386 209.208 99.719 C 208.773 99.352,208.154 98.965,207.833 98.858 C 206.525 98.424,206.002 97.647,205.985 96.115 C 205.924 90.585,206.046 84.380,206.221 84.068 C 207.536 81.722,210.268 80.131,212.025 80.688 C 213.202 81.061,213.173 80.866,213.342 89.799 C 213.424 94.172,213.518 99.100,213.551 100.750 C 213.645 105.479,213.398 105.278,218.911 105.111 C 223.163 104.983,223.396 104.927,224.304 103.811 C 225.651 102.155,224.905 100.068,222.527 98.844 C 222.191 98.672,221.714 98.317,221.466 98.055 L 221.015 97.580 220.864 89.832 C 220.742 83.499,220.667 81.958,220.455 81.395 C 220.312 81.017,220.143 80.287,220.079 79.775 C 219.792 77.472,216.599 74.312,214.094 73.849 C 211.642 73.396,207.568 73.771,206.435 74.553 C 206.079 74.799,205.696 75.000,205.586 75.000 C 205.476 75.000,205.167 75.187,204.901 75.416 C 204.457 75.798,203.986 75.926,203.333 75.840 C 203.196 75.822,202.483 75.411,201.750 74.926 C 199.856 73.675,197.219 73.289,194.750 73.902 M321.858 73.927 C 320.818 74.047,319.730 74.253,319.442 74.386 C 319.153 74.519,318.392 74.718,317.750 74.828 C 314.471 75.393,312.911 77.543,313.977 80.030 C 314.622 81.534,318.087 82.312,320.333 81.456 C 320.746 81.299,322.424 80.982,324.063 80.752 C 330.521 79.845,333.818 80.751,334.096 83.510 C 334.264 85.179,334.110 85.243,330.530 85.005 C 327.097 84.777,323.440 84.982,321.860 85.492 C 321.279 85.680,320.602 85.833,320.356 85.833 C 320.110 85.833,319.460 86.056,318.912 86.328 C 318.365 86.600,317.797 86.825,317.650 86.828 C 317.503 86.831,317.053 87.057,316.650 87.330 C 316.247 87.604,315.840 87.829,315.745 87.830 C 315.554 87.834,314.775 88.493,313.712 89.549 C 312.322 90.931,312.000 91.288,312.000 91.450 C 312.000 91.541,311.849 91.751,311.665 91.918 C 310.411 93.053,309.450 97.853,310.278 98.850 C 310.385 98.979,310.630 99.485,310.824 99.975 C 311.017 100.465,311.360 101.110,311.587 101.407 C 311.814 101.705,312.000 102.019,312.000 102.105 C 312.000 102.376,313.562 103.792,314.000 103.918 C 314.229 103.985,314.642 104.207,314.917 104.412 C 315.192 104.617,315.604 104.841,315.833 104.909 C 316.063 104.978,316.515 105.212,316.839 105.431 C 317.283 105.731,317.814 105.870,319.005 106.001 C 319.873 106.095,321.032 106.281,321.580 106.414 C 322.578 106.655,323.904 106.575,325.500 106.178 C 325.821 106.098,326.821 105.986,327.724 105.929 C 328.913 105.853,329.554 105.727,330.057 105.469 C 330.438 105.274,331.275 105.011,331.917 104.885 C 332.558 104.759,333.281 104.613,333.523 104.562 C 333.791 104.504,334.271 104.604,334.752 104.817 C 335.658 105.218,342.987 105.345,344.648 104.988 C 347.712 104.331,348.006 99.408,345.011 98.904 C 341.396 98.295,341.576 98.782,341.341 88.967 C 341.141 80.630,341.134 80.557,340.488 79.537 C 340.219 79.114,340.000 78.683,340.000 78.578 C 340.000 78.474,339.794 78.192,339.542 77.951 C 339.290 77.711,339.008 77.437,338.917 77.342 C 338.165 76.567,337.525 76.045,337.017 75.793 C 336.687 75.629,336.229 75.390,336.000 75.261 C 333.220 73.707,328.039 73.218,321.858 73.927 M165.752 75.979 C 164.944 76.152,164.810 76.678,164.648 80.296 C 164.568 82.084,164.425 83.818,164.330 84.148 C 164.235 84.479,164.087 86.063,164.000 87.667 C 163.773 91.880,163.678 92.807,163.365 93.833 C 162.855 95.507,162.969 100.546,163.557 102.333 C 164.490 105.168,166.500 106.411,168.583 105.443 C 169.042 105.230,169.629 105.003,169.889 104.938 C 170.370 104.818,171.762 103.928,172.282 103.408 C 172.440 103.250,172.812 103.019,173.107 102.896 C 173.402 102.773,173.693 102.593,173.753 102.496 C 173.812 102.399,174.136 102.142,174.472 101.925 C 176.181 100.821,180.000 96.645,180.000 95.881 C 180.000 94.017,176.749 94.867,175.052 97.174 C 174.707 97.643,173.101 98.803,172.637 98.919 C 172.392 98.980,172.064 99.170,171.909 99.342 C 171.753 99.514,171.354 99.743,171.022 99.851 C 170.689 99.960,170.205 100.225,169.946 100.441 C 168.852 101.352,167.128 100.956,166.943 99.750 C 166.886 99.383,166.767 98.746,166.677 98.333 C 166.444 97.257,166.465 95.888,166.743 94.034 C 166.876 93.145,167.055 91.667,167.141 90.750 C 167.226 89.832,167.458 88.645,167.655 88.109 C 167.957 87.291,168.031 86.634,168.114 84.025 C 168.200 81.340,168.267 80.766,168.607 79.813 C 169.566 77.122,168.308 75.432,165.752 75.979 M246.429 80.761 C 247.691 81.012,248.721 81.308,248.917 81.477 C 249.100 81.635,249.527 81.889,249.865 82.041 C 251.462 82.761,253.501 85.254,252.831 85.668 C 252.063 86.143,234.549 86.121,234.073 85.644 C 233.575 85.146,235.851 82.461,237.240 81.908 C 237.612 81.760,238.042 81.526,238.195 81.389 C 239.188 80.498,243.461 80.172,246.429 80.761 M331.850 92.601 C 334.030 92.951,334.250 93.126,334.250 94.509 C 334.250 95.894,332.311 97.542,330.250 97.909 C 329.883 97.975,329.343 98.176,329.049 98.356 C 327.762 99.147,322.483 99.564,320.068 99.064 C 318.364 98.712,317.092 97.736,317.269 96.917 C 317.459 96.033,319.318 93.833,319.875 93.833 C 319.951 93.833,320.217 93.683,320.465 93.500 C 322.134 92.270,327.265 91.864,331.850 92.601 " stroke="none" fill="#edeefb" fill-rule="evenodd"></path><path id="path2" d="M83.583 13.416 C 80.851 14.160,79.613 14.524,78.500 14.911 C 76.946 15.451,71.984 17.917,71.201 18.539 C 70.882 18.793,70.533 19.000,70.425 19.000 C 70.318 19.000,70.084 19.134,69.906 19.297 C 69.729 19.460,69.283 19.776,68.917 19.999 C 68.550 20.222,68.151 20.501,68.030 20.619 C 67.909 20.737,67.740 20.833,67.655 20.833 C 66.990 20.833,65.500 22.939,65.500 23.880 C 65.498 25.376,67.729 27.286,68.592 26.528 C 68.679 26.451,69.108 26.257,69.545 26.096 C 69.982 25.935,70.436 25.706,70.555 25.588 C 70.674 25.469,71.071 25.219,71.438 25.031 C 71.805 24.844,72.204 24.573,72.323 24.429 C 72.443 24.285,72.618 24.167,72.713 24.167 C 72.808 24.167,73.117 23.990,73.401 23.775 C 74.296 23.094,76.304 22.135,76.622 22.236 C 76.932 22.334,78.000 24.111,78.000 24.528 C 78.000 24.657,78.154 25.060,78.341 25.423 C 78.529 25.786,78.824 26.496,78.997 27.000 C 80.126 30.293,81.343 31.251,83.173 30.283 C 84.524 29.568,84.925 28.306,84.333 26.623 C 84.150 26.102,84.000 25.558,84.000 25.415 C 84.000 25.272,83.822 24.802,83.605 24.369 C 83.387 23.937,83.080 23.134,82.922 22.586 C 82.764 22.037,82.525 21.377,82.392 21.119 C 81.830 20.033,82.764 19.370,85.583 18.852 C 90.103 18.022,90.348 17.945,91.040 17.142 C 92.117 15.894,91.715 14.018,90.239 13.401 C 89.482 13.085,84.759 13.095,83.583 13.416 M97.750 25.142 C 97.330 25.278,96.350 25.953,95.167 26.920 C 94.142 27.758,92.608 28.833,92.438 28.833 C 92.377 28.833,92.028 29.022,91.662 29.253 C 91.296 29.484,90.604 29.826,90.124 30.013 C 89.643 30.200,88.950 30.495,88.583 30.669 C 88.217 30.842,87.545 31.067,87.090 31.167 C 86.636 31.268,86.186 31.412,86.090 31.488 C 85.995 31.564,85.317 31.757,84.583 31.917 C 83.850 32.076,82.670 32.348,81.960 32.521 C 79.890 33.025,76.807 33.216,72.583 33.102 C 55.562 32.645,54.425 32.730,49.819 34.804 C 47.600 35.804,44.550 38.188,43.812 39.500 C 43.632 39.821,43.219 40.533,42.893 41.083 C 42.568 41.633,42.120 42.565,41.898 43.154 C 41.676 43.742,41.423 44.308,41.337 44.412 C 41.252 44.515,41.132 44.934,41.071 45.342 C 41.010 45.750,40.814 46.608,40.635 47.250 C 39.562 51.092,40.340 55.500,42.091 55.500 C 43.095 55.500,43.966 54.940,44.098 54.209 C 44.160 53.865,44.277 53.455,44.357 53.298 C 44.438 53.142,44.687 52.154,44.909 51.103 C 45.132 50.052,45.458 48.905,45.633 48.554 C 45.809 48.204,46.007 47.692,46.073 47.417 C 46.139 47.142,46.363 46.692,46.572 46.417 C 46.781 46.142,47.009 45.729,47.078 45.500 C 47.147 45.271,47.373 44.896,47.580 44.667 C 47.787 44.438,48.084 44.049,48.239 43.804 C 48.541 43.328,50.610 41.541,51.218 41.230 C 55.708 38.940,58.270 38.511,65.559 38.829 C 67.810 38.927,70.012 39.077,70.451 39.163 C 73.983 39.848,81.236 39.728,84.833 38.925 C 87.397 38.352,89.216 37.835,89.500 37.598 C 89.638 37.483,90.125 37.253,90.583 37.086 C 91.042 36.918,91.596 36.643,91.814 36.474 C 92.033 36.305,92.299 36.167,92.407 36.167 C 92.514 36.167,93.085 35.829,93.676 35.417 C 94.267 35.004,94.893 34.573,95.068 34.458 C 95.859 33.940,97.233 32.626,99.557 30.167 C 101.417 28.197,100.766 25.033,98.500 25.033 C 98.271 25.033,97.933 25.082,97.750 25.142 " stroke="none" fill="#1cf42c" fill-rule="evenodd"></path></g></svg>